<?xml version="1.0" encoding="utf-8"?>
<!-- Generator: Adobe Illustrator 25.4.1, SVG Export Plug-In . SVG Version: 6.00 Build 0)  -->
<svg version="1.1" id="Layer_1" xmlns="http://www.w3.org/2000/svg" xmlns:xlink="http://www.w3.org/1999/xlink" x="0px" y="0px"
	 viewBox="0 0 48.18 60.08" style="enable-background:new 0 0 48.18 60.08;" xml:space="preserve">
<style type="text/css">
	.st0{fill:#FFFFFF;}
</style>
<g>
	<path class="st0" d="M46.95,38.54c-2.52-0.92-4.49-6.79-8.48-12.15c-2.85-3.83-6.65-5.98-8.6-6.89c1.3-1.34,2.62-3.22,3.54-5.06
		c1.32-2.67,1.5-4.55,0.53-5.61c-0.54-0.59-1.09-0.81-1.53-0.87c0.22-0.87,0.28-1.91-0.5-2.72c-0.67-0.71-1.59-0.92-2.52-0.59
		c-0.03,0.01-0.06,0.02-0.09,0.03c0.01-0.22,0.01-0.43-0.01-0.64c-0.09-0.82-0.59-1.46-1.32-1.7c-0.76-0.26-1.98-0.09-3.35,0.98
		c-0.19-0.82-0.68-1.45-1.38-1.77c-0.68-0.31-2.1-0.55-3.98,1.27c-1.1,1.07-1.72,2.62-2.12,3.88c-0.2-0.1-0.42-0.18-0.66-0.22
		c-0.73-0.12-1.48,0.11-2.21,0.7c-1.05,0.84-1.55,2.2-1.87,3.27c-0.48-0.13-0.98-0.15-1.44-0.03c-1,0.26-1.7,1.1-1.86,2.24
		c-0.03,0.24-0.06,0.46-0.08,0.67c-0.14,1.21-0.22,1.93-1.58,3.22C5.32,18.6,4.77,20.46,5.6,22.8c0.24,0.67,0.27,0.94,0.27,1.04
		c-0.03,0.02-0.07,0.07-0.16,0.13c-1.27,0.92-1.08,2.5-0.37,3.62c0.03,0.05,0.06,0.11,0.11,0.17c-6.49,5.29-4.21,12.71-4.21,12.71
		c2.44-1.18,5.04-1.88,6.88-2.27c-0.39,0.51-0.72,1.11-0.92,1.8c-0.37,1.25-0.21,2.52,0.44,3.66c1.18,2.05,3.55,2.35,5.25,2.14
		c1.09,1.26,2.84,2.06,4.81,2.18c-0.33,0.95-0.73,1.85-0.73,1.85c0.96-0.14,1.33-0.46,1.33-0.46c-0.32,2.43-4.13,7.01-4.13,7.01
		c1.93-0.05,2.66-0.55,2.66-0.55c0,0.73-0.92,3.03-0.92,3.03c17.83,0.23,17.97-15.91,17.97-15.91c0.46,1.33,2.7,1.83,2.7,1.83
		c2.34-2.75,1.24-8.16,1.24-8.16C42.28,39.59,46.95,38.54,46.95,38.54z M6.5,26.9c0,0-0.83-1.24,0-1.83c0.83-0.6,0.92-1.15,0.37-2.7
		c-0.55-1.56-0.46-2.93,1.51-4.81s1.83-3.07,2.06-4.68c0.23-1.6,1.88-1.33,2.48-0.55c0.6,0.78,0.6-2.8,2.2-4.08s2.11,0.64,2.52,0.96
		c0.41,0.32,0.69-3.58,2.57-5.41c1.88-1.83,3.26-1.19,3.16,0.55c-0.09,1.74,0.05,2.06,1.38,0.69s3.07-2.02,3.21-0.83
		c0.14,1.19-0.96,3.53,0,2.98c0.96-0.55,2.06-1.97,2.98-1.01c0.92,0.96-0.83,3.16-0.23,3.62s1.1-1.28,2.25-0.05
		c1.15,1.24-1.65,6.6-4.45,9.22c0,0-0.54,0.35-1.08,0.17c-7.23-1.52-12.13,3.14-12.13,3.14c-0.18-0.15-0.06-1.02-0.06-1.02
		c-1.82,1.34-2.97,5.76-4.06,5.38c-1.09-0.38-1.34-0.33-2.83,0.39C6.87,27.74,6.5,26.9,6.5,26.9z M13.49,44.32
		c0,0-3.4,0.89-4.68-1.33c-1.28-2.23,0.38-4.46,1.83-5.22c0,0,3.32-0.17,5.77-0.37c2.45-0.2,2.84-0.82,2.84-1.14
		c0-0.33-0.52-2.25-5.19-3.49c0,0,1.14-0.88,0.49-1.34s-3.56,0.49-3.33-0.49c0.23-0.98,1.89-2.71,1.04-3.92c0,0,0.85-1.86,1.4-1.76
		c0.55,0.1-0.07,1.17,0.29,0.88c0.36-0.29,2.34-4.87,7.61-4.63c3.49,0.15,5.97,3.46,5.19,5.26c-0.78,1.8-2.71,3.72-2.71,3.72
		s2.09,0.29,1.83,0.88s-2.06,1.21-0.52,1.21s2.77-0.29,2.71,0.33c-0.07,0.62-2.03,3.59-4.2,4.05c0,0,2.04,3.17-0.6,7.05
		C20.62,47.87,15.03,47.06,13.49,44.32z"/>
	<path class="st0" d="M19.67,29.91c1.49,0,2.7-1.21,2.7-2.7c0-1.49-1.21-2.7-2.7-2.7s-2.7,1.21-2.7,2.7
		C16.98,28.7,18.18,29.91,19.67,29.91z M19.67,25.4c1,0,1.81,0.81,1.81,1.81c0,1-0.81,1.81-1.81,1.81c-1,0-1.81-0.81-1.81-1.81
		C17.86,26.21,18.67,25.4,19.67,25.4z"/>
</g>
</svg>
